<svg viewBox="0 0 32 32" fill="none" xmlns="http://www.w3.org/2000/svg">
  <!-- npm wordmark box, recolored in VS Code blue, nested inside the lens -->
  <g transform="translate(5 5) scale(0.5)">
    <path d="M0 10V20H9V22H16V20H32V10H0Z" fill="#007acc"/>
    <path d="M5.46205 12H2V18H5.46205V13.6111H7.22344V18H8.98482V12H5.46205ZM10.7462 12V20H14.269V18H17.731V12H10.7462ZM15.9696 16.3889H14.269V13.6111H15.9696V16.3889ZM22.9545 12H19.4924V18H22.9545V13.6111H24.7158V18H26.4772V13.6111H28.2386V18H30V12H22.9545Z" fill="#ffffff"/>
  </g>
  <!-- Library Lens: magnifying glass -->
  <g stroke="#1f9cf0" stroke-width="2.2" stroke-linecap="round" stroke-linejoin="round" fill="none">
    <circle cx="13" cy="13" r="11"/>
    <path d="M21 21 L29 29"/>
  </g>
</svg>
